<svg width="491" height="603" viewBox="0 0 491 603" fill="none" xmlns="http://www.w3.org/2000/svg">
<rect x="12.0491" y="63.2576" width="466.902" height="466.902" rx="84.3436" fill="#111114" stroke="#111114" stroke-width="24.0982"/>
<path d="M259.2 441.565L257.465 406.575L363.593 300.447H404.656L259.2 441.565ZM233.174 502.871V300.447H264.405V502.871H233.174ZM367.352 502.871L289.853 399.345L312.987 379.392L406.391 502.871H367.352Z" fill="#F0F0F0"/>
<path d="M275.346 295.024V92.5999H402.873V122.674H306.577V264.95H402.873V295.024H275.346ZM289.515 206.247V176.172H386.968V206.247H289.515Z" fill="#F0F0F0"/>
<path d="M218.667 502.871V300.447H91.1393V330.521H187.436V472.797H91.1393V502.871H218.667ZM204.497 414.093V384.019H107.044V414.093H204.497Z" fill="#F0F0F0"/>
<path d="M182.11 291.892C167.458 291.892 153.77 289.289 141.047 284.084C128.323 278.686 117.141 271.264 107.502 261.817C97.8627 252.371 90.344 241.382 84.946 228.851C79.7408 216.127 77.1382 202.439 77.1382 187.788C77.1382 173.329 79.7408 159.834 84.946 147.303C90.344 134.772 97.7663 123.879 107.213 114.626C116.852 105.179 128.034 97.8534 140.757 92.6482C153.481 87.443 167.169 84.8404 181.821 84.8404C192.038 84.8404 201.967 86.2863 211.606 89.178C221.438 92.0698 230.306 96.1183 238.21 101.324C246.115 106.529 252.573 112.505 257.585 119.253L237.343 140.363C231.559 134.772 225.583 130.145 219.414 126.482C213.437 122.819 207.268 120.024 200.906 118.096C194.544 116.168 188.183 115.204 181.821 115.204C171.41 115.204 161.771 117.036 152.903 120.698C144.228 124.361 136.516 129.47 129.769 136.025C123.214 142.58 118.105 150.291 114.442 159.159C110.779 167.834 108.948 177.377 108.948 187.788C108.948 197.813 110.876 207.355 114.731 216.416C118.587 225.284 123.889 233.092 130.636 239.84C137.576 246.587 145.481 251.889 154.349 255.745C163.41 259.6 172.953 261.528 182.977 261.528C190.496 261.528 197.629 260.468 204.377 258.347C211.124 256.034 217.1 252.853 222.306 248.804C227.511 244.756 231.559 240.129 234.451 234.924C237.343 229.526 238.789 223.839 238.789 217.862V212.079L243.126 216.127H181.242V185.185H270.887C271.273 187.306 271.562 189.426 271.755 191.547C271.948 193.475 272.044 195.403 272.044 197.331C272.237 199.066 272.333 200.801 272.333 202.536C272.333 215.838 270.02 227.983 265.393 238.972C260.766 249.768 254.308 259.118 246.018 267.022C237.921 274.927 228.378 281.096 217.39 285.53C206.594 289.771 194.834 291.892 182.11 291.892Z" fill="#F0F0F0"/>
</svg>
